<svg id="Layer_37" enable-background="new 0 0 64 64" height="512" viewBox="0 0 64 64" width="512" xmlns="http://www.w3.org/2000/svg"><path d="m61.605 15.956c-.453-.379-.981-.639-1.536-.794.571-.546.931-1.311.931-2.162v-5.252c0-.881-.59-1.67-1.378-1.9l-13.447-4.848h-1.175c-1.654 0-3 1.346-3 3v5c-1.761 0-3.338 1.18-3.83 2.846l-1.666 5.154h-12.504c-2.206 0-4 1.794-4 4 0 .496.188.944.487 1.294-1.438 2.16-2.184 5.493-2.41 7.544-.534.279-1.008.621-1.409 1.039-1.873 1.95-1.757 4.783-1.688 6.475.011.246.02.465.02.648 0 .529.052 1.035.132 1.526l-.01-.005-5.713 10.474-2.995-2.995h-1.585c-2.112 0-3.829 1.717-3.829 3.829 0 1.022.398 1.984 1.122 2.707l9.464 9.464h1.585c2.112 0 3.829-1.717 3.829-3.829 0-1.022-.398-1.984-1.122-2.707l-1.642-1.642 5.11-9.368c1.777.994 4.029 1.546 6.654 1.546h7v4c-1.654 0-3 1.346-3 3v3h-2c-2.206 0-4 1.794-4 4v2h26v-2c0-2.206-1.794-4-4-4h-2v-3c0-1.654-1.346-3-3-3v-4h8.5c4.136 0 7.5-3.364 7.5-7.5 0-.33-.04-.649-.108-.959.363-.329.742-.72.946-1.412l4.963-16.876c.473-1.607.004-3.294-1.196-4.297zm-4.605-6.956c0-.551.449-1 1-1h1v5c0 .551-.449 1-1 1s-1-.449-1-1zm-12-6h.825l10.255 3.696c-.659.551-1.08 1.379-1.08 2.304v4c0 .267.046.521.112.768l-11.112-4.445v-5.323c0-.551.449-1 1-1zm-4.919 9.437c.25-.846 1.039-1.437 1.919-1.437h.808l13.255 5.303c-.407.441-.724.97-.901 1.569l-2.685 9.128h-17.103zm8.831 24.376-6.99-3.813h8.791l-.517 1.757c-.105.356-.155.68-.176.994-.43.285-.798.65-1.108 1.062zm-26.912-5.813h6c0 .769.441 1.43 1.079 1.765-1.483 2.067-2.782 5.056-3.019 8.235h-.06c-3.86 0-7-3.14-7-7 0-1.654 1.346-3 3-3zm12.565-8-1.293 4h-1.272c-1.474 0-2.75.81-3.444 2h-4.479c.235-1.863 1.061-4.469 2.385-6zm-3.117 10h1.515c-1.448 2.257-2.635 5.474-2.902 8h-2c.278-3.165 1.8-6.258 3.387-8zm3.992 0h2.305l10.342 5.641c-.054.279-.087.565-.087.859v.5c0 .551-.449 1-1 1h-14.926c.34-2.61 1.854-6.256 3.366-8zm15.861-2h-21.301c0-1.103.897-2 2-2h19.889zm-27.301-12h11.858l-.646 2h-13.212c0-1.103.897-2 2-2zm-1.551 4h1.567c-1.126 1.9-1.768 4.265-1.954 6h-.062c-.651 0-1.254.054-1.819.151.338-2.066 1.137-4.764 2.268-6.151zm-7.449 36.171c0 1.009-.82 1.829-1.829 1.829h-.757l-8.878-8.878c-.346-.346-.536-.805-.536-1.293 0-1.009.82-1.829 1.829-1.829h.757l8.878 8.878c.346.346.536.805.536 1.293zm-2.238-5.823-1.879-1.879 5.107-9.362c.437.819 1.013 1.548 1.715 2.179zm35.238 7.652h-22c0-1.103.897-2 2-2h18c1.103 0 2 .897 2 2zm-6-7v3h-10v-3c0-.551.449-1 1-1h8c.551 0 1 .449 1 1zm-3-3h-4v-4h4zm10.5-6h-23.5c-5.551 0-9-2.682-9-7 0-.207-.01-.453-.021-.73-.029-.714-.065-1.608.055-2.49.396 4.599 4.266 8.22 8.966 8.22h21c1.654 0 3-1.346 3-3v-.5c0-1.378 1.122-2.5 2.5-2.5s2.5 1.122 2.5 2.5c0 3.033-2.467 5.5-5.5 5.5zm11.382-25.312-4.963 16.876c-.003.012-.009.02-.012.031-.826-.968-2.038-1.595-3.407-1.595-.103 0-.199.023-.299.03l4.88-16.594c.25-.845 1.039-1.436 1.92-1.436.48 0 .938.169 1.321.49.58.485.805 1.367.56 2.198z"/></svg>